<svg width="125" height="141" viewBox="0 0 125 141" fill="none" xmlns="http://www.w3.org/2000/svg">
<g clip-path="url(#clip0_307_523)">
<path d="M38.3823 67.7793C37.4235 72.1648 33.5108 75.4583 28.8424 75.4583C27.5975 75.4583 26.5885 76.4673 26.5885 77.7122C26.5885 78.9571 27.5975 79.9661 28.8424 79.9661C35.9864 79.9661 41.9215 74.6906 42.9556 67.8295C47.3302 67.3567 51.3674 65.4074 54.4938 62.2165C55.3653 61.3277 55.35 59.9004 54.4611 59.029C53.5722 58.1586 52.1449 58.1717 51.2735 59.0617C48.5096 61.8835 44.812 63.4374 40.8622 63.4374C32.8261 63.4374 26.2871 56.8995 26.2871 48.8623C26.2871 47.6174 25.2781 46.6084 24.0332 46.6084C22.7883 46.6084 21.7793 47.6174 21.7793 48.8623C21.7793 58.543 29.027 66.5573 38.3812 67.7782L38.3823 67.7793Z" fill="url(#paint0_linear_307_523)"/>
<path d="M47.9261 87.3291C47.9261 86.0842 46.9171 85.0752 45.6722 85.0752C35.1507 85.0752 26.5904 93.6355 26.5904 104.157C26.5904 104.266 26.5947 104.375 26.5958 104.484C25.7572 104.371 24.9043 104.307 24.0361 104.307C22.7912 104.307 21.7822 105.316 21.7822 106.561C21.7822 107.805 22.7912 108.814 24.0361 108.814C32.0723 108.814 38.6112 115.352 38.6112 123.39C38.6112 124.634 39.6203 125.643 40.8652 125.643C42.1101 125.643 43.1191 124.634 43.1191 123.39C43.1191 115.393 38.1723 108.534 31.1801 105.7C31.1266 105.189 31.0993 104.672 31.0993 104.157C31.0993 96.1209 37.6372 89.5819 45.6744 89.5819C46.9193 89.5819 47.9283 88.5729 47.9283 87.328L47.9261 87.3291Z" fill="url(#paint1_linear_307_523)"/>
<path d="M124.856 68.0969C124.856 62.9655 122.806 58.1028 119.184 54.5275C119.757 52.6919 120.048 50.794 120.048 48.8644C120.048 39.5866 113.391 31.8377 104.603 30.1341C105.275 28.4601 105.623 26.6659 105.623 24.8237C105.623 18.9465 102.052 13.8894 96.9668 11.7031C88.4939 4.9545 79.2271 0.932617 72.117 0.932617C68.1639 0.932617 64.6596 2.8764 62.5007 5.85651C60.3418 2.8764 56.8364 0.932617 52.8844 0.932617C45.7743 0.932617 36.5075 4.9545 28.0346 11.7021C22.949 13.8883 19.3782 18.9454 19.3782 24.8226C19.3782 26.6637 19.7265 28.459 20.3981 30.1331C11.6107 31.8366 4.95376 39.5855 4.95376 48.8633C4.95376 50.7918 5.24423 52.6908 5.81754 54.5265C2.19424 58.1028 0.144531 62.9655 0.144531 68.0969C0.144531 72.1079 1.39161 75.8327 3.51448 78.9078C1.30862 82.0965 0.144531 85.817 0.144531 89.7341C0.144531 96.6727 3.92727 103.029 9.91587 106.381C9.81322 107.238 9.7608 108.103 9.7608 108.967C9.7608 118.325 15.8652 126.6 24.7236 129.42C28.5762 136.014 35.5946 140.069 43.2681 140.069C51.681 140.069 58.9757 135.207 62.5007 128.147C66.0257 135.207 73.3204 140.069 81.7332 140.069C89.4068 140.069 96.4252 136.014 100.278 129.42C109.135 126.599 115.241 118.325 115.241 108.967C115.241 108.103 115.188 107.238 115.086 106.381C121.074 103.029 124.857 96.6716 124.857 89.7341C124.857 85.817 123.693 82.0976 121.487 78.9078C123.61 75.8327 124.857 72.1079 124.857 68.0969H124.856ZM43.2671 135.56C36.9476 135.56 31.1894 132.076 28.2388 126.468C27.9461 125.912 27.4361 125.504 26.8301 125.341C19.4339 123.351 14.2675 116.617 14.2675 108.966C14.2675 107.821 14.3833 106.673 14.6104 105.556C14.8212 104.52 14.2839 103.477 13.3175 103.047C8.05289 100.707 4.65127 95.4802 4.65127 89.733C4.65127 87.1187 5.32941 84.6202 6.62345 82.4067C9.98794 85.3726 14.3986 87.1787 19.2264 87.1787C20.4713 87.1787 21.4803 86.1697 21.4803 84.9248C21.4803 83.6799 20.4713 82.6709 19.2264 82.6709C11.1902 82.6709 4.65127 76.133 4.65127 68.0958C4.65127 63.7693 6.56011 59.6928 9.88857 56.9103C10.6399 56.2824 10.8998 55.2406 10.5318 54.3343C9.81977 52.5805 9.45941 50.7394 9.45941 48.8633C9.45941 40.8271 15.9973 34.2882 24.0345 34.2882C32.0717 34.2882 38.6096 40.8261 38.6096 48.8633C38.6096 50.1082 39.6186 51.1172 40.8635 51.1172C42.1084 51.1172 43.1174 50.1082 43.1174 48.8633C43.1174 38.7534 35.2135 30.4596 25.2608 29.824C24.3588 28.3159 23.8849 26.6015 23.8849 24.8226C23.8849 20.8051 26.3234 17.3478 29.7982 15.8495C29.9325 15.8091 30.0646 15.7578 30.1913 15.6912C31.268 15.2817 32.4332 15.0556 33.6519 15.0556C37.4259 15.0556 40.7936 17.1654 42.4437 20.5627C42.9875 21.6831 44.3361 22.1493 45.4554 21.6055C46.5748 21.0617 47.0421 19.7131 46.4983 18.5938C44.6157 14.716 41.0514 11.9292 36.9476 10.942C42.7003 7.43228 48.3635 5.43936 52.8844 5.43936C56.9445 5.43936 60.2468 8.74161 60.2468 12.8017V41.9661C58.2222 40.3598 55.6636 39.3966 52.8844 39.3966C51.6395 39.3966 50.6305 40.4056 50.6305 41.6505C50.6305 42.8954 51.6395 43.9044 52.8844 43.9044C56.9445 43.9044 60.2468 47.2067 60.2468 51.2668V105.443C57.4447 101.827 53.4938 99.0992 48.8472 97.8499C47.646 97.5278 46.4088 98.2398 46.0855 99.4421C45.7623 100.644 46.4754 101.881 47.6777 102.204C55.0783 104.192 60.2468 110.927 60.2468 118.582C60.2468 127.944 52.63 135.56 43.2681 135.56H43.2671ZM111.682 103.048C110.715 103.478 110.178 104.521 110.389 105.557C110.616 106.674 110.732 107.821 110.732 108.967C110.732 116.618 105.566 123.352 98.1691 125.342C97.5631 125.505 97.052 125.914 96.7604 126.469C93.8098 132.077 88.0516 135.561 81.7321 135.561C72.3703 135.561 64.7535 127.945 64.7535 118.583C64.7535 117.95 64.724 117.321 64.6694 116.698C64.7229 116.506 64.7535 116.303 64.7535 116.093V41.6516C64.7535 37.5915 68.0569 34.2893 72.1159 34.2893C73.3608 34.2893 74.3698 33.2802 74.3698 32.0353C74.3698 30.7905 73.3608 29.7814 72.1159 29.7814C69.3367 29.7814 66.7781 30.7446 64.7535 32.3509V12.8028C64.7535 8.7427 68.0569 5.44045 72.1159 5.44045C76.6368 5.44045 82.3 7.43337 88.0527 10.9431C83.9489 11.9303 80.3846 14.7171 78.502 18.5948C77.9581 19.7153 78.4255 21.0628 79.5448 21.6066C80.6641 22.1504 82.0128 21.6842 82.5566 20.5637C84.2066 17.1665 87.5744 15.0567 91.3484 15.0567C92.566 15.0567 93.7323 15.2828 94.809 15.6923C94.9357 15.7589 95.0678 15.8102 95.201 15.8506C98.6758 17.3489 101.115 20.8062 101.115 24.8237C101.115 26.6026 100.641 28.3181 99.7394 29.8251C89.7868 30.4596 81.8828 38.7545 81.8828 48.8644C81.8828 50.1093 82.8919 51.1183 84.1367 51.1183C85.3816 51.1183 86.3907 50.1093 86.3907 48.8644C86.3907 40.8282 92.9286 34.2893 100.966 34.2893C109.003 34.2893 115.541 40.8271 115.541 48.8644C115.541 50.7404 115.181 52.5816 114.469 54.3354C114.101 55.2428 114.36 56.2835 115.112 56.9114C118.44 59.6928 120.349 63.7703 120.349 68.0969C120.349 76.133 113.811 82.672 105.774 82.672C104.529 82.672 103.52 83.681 103.52 84.9259C103.52 86.1708 104.529 87.1798 105.774 87.1798C110.602 87.1798 115.012 85.3747 118.377 82.4077C119.671 84.6213 120.349 87.1198 120.349 89.7341C120.349 95.4813 116.947 100.708 111.683 103.049L111.682 103.048Z" fill="url(#paint2_linear_307_523)"/>
<path d="M100.966 73.0549C96.2979 73.0549 92.3852 69.7614 91.4264 65.3758C100.78 64.155 108.028 56.1407 108.028 46.46C108.028 45.2151 107.019 44.2061 105.774 44.2061C104.53 44.2061 103.52 45.2151 103.52 46.46C103.52 54.4961 96.9826 61.0351 88.9454 61.0351C84.9956 61.0351 81.298 59.4811 78.5341 56.6594C77.6638 55.7705 76.2365 55.7563 75.3465 56.6266C74.4577 57.498 74.4424 58.9242 75.3138 59.8142C78.4402 63.0051 82.4774 64.9543 86.852 65.4272C87.8872 72.2872 93.8212 77.5638 100.965 77.5638C102.21 77.5638 103.219 76.5548 103.219 75.3099C103.219 74.065 102.21 73.056 100.965 73.056L100.966 73.0549Z" fill="url(#paint3_linear_307_523)"/>
<path d="M93.7533 99.5C92.8851 99.5 92.0312 99.5633 91.1936 99.6769C91.1958 99.5677 91.199 99.4585 91.199 99.3504C91.199 88.8288 82.6387 80.2686 72.1172 80.2686C70.8723 80.2686 69.8633 81.2776 69.8633 82.5225C69.8633 83.7674 70.8723 84.7764 72.1172 84.7764C80.1533 84.7764 86.6923 91.3143 86.6923 99.3515C86.6923 99.8669 86.665 100.383 86.6115 100.895C79.6193 103.728 74.6725 110.587 74.6725 118.584C74.6725 119.829 75.6815 120.838 76.9264 120.838C78.1713 120.838 79.1803 119.829 79.1803 118.584C79.1803 110.548 85.7182 104.009 93.7554 104.009C95.0003 104.009 96.0094 103 96.0094 101.755C96.0094 100.51 95.0003 99.5011 93.7554 99.5011L93.7533 99.5Z" fill="url(#paint4_linear_307_523)"/>
</g>
<defs>
<linearGradient id="paint0_linear_307_523" x1="29.1566" y1="48.896" x2="59.5331" y2="70.5678" gradientUnits="userSpaceOnUse">
<stop stop-color="#EDDDB6"/>
<stop offset="0.432692" stop-color="#C9FFE6"/>
<stop offset="1" stop-color="#A5C7FA"/>
</linearGradient>
<linearGradient id="paint1_linear_307_523" x1="27.5645" y1="87.8573" x2="57.222" y2="101.494" gradientUnits="userSpaceOnUse">
<stop stop-color="#EDDDB6"/>
<stop offset="0.432692" stop-color="#C9FFE6"/>
<stop offset="1" stop-color="#A5C7FA"/>
</linearGradient>
<linearGradient id="paint2_linear_307_523" x1="27.7251" y1="10.4742" x2="149.356" y2="88.2532" gradientUnits="userSpaceOnUse">
<stop stop-color="#EDDDB6"/>
<stop offset="0.432692" stop-color="#C9FFE6"/>
<stop offset="1" stop-color="#A5C7FA"/>
</linearGradient>
<linearGradient id="paint3_linear_307_523" x1="82.0473" y1="46.4936" x2="112.424" y2="68.1655" gradientUnits="userSpaceOnUse">
<stop stop-color="#EDDDB6"/>
<stop offset="0.432692" stop-color="#C9FFE6"/>
<stop offset="1" stop-color="#A5C7FA"/>
</linearGradient>
<linearGradient id="paint4_linear_307_523" x1="75.6456" y1="83.0507" x2="105.303" y2="96.687" gradientUnits="userSpaceOnUse">
<stop stop-color="#EDDDB6"/>
<stop offset="0.432692" stop-color="#C9FFE6"/>
<stop offset="1" stop-color="#A5C7FA"/>
</linearGradient>
<clipPath id="clip0_307_523">
<rect width="124.711" height="139.136" fill="white" transform="translate(0.144531 0.932617)"/>
</clipPath>
</defs>
</svg>
