<svg width="32" height="31" viewBox="0 0 32 31" fill="none" xmlns="http://www.w3.org/2000/svg">
<path fill-rule="evenodd" clip-rule="evenodd" d="M26.5254 13.7325H31.101C30.3912 6.18199 25.0606 0.851347 17.5101 0.141602V4.7927C22.0404 5.44204 25.876 9.20218 26.5254 13.7325ZM14.4899 4.79277V0.141671C6.93943 0.896719 0.899048 7.40523 0.899048 15.2426C0.899048 23.08 6.93943 29.5886 14.4899 30.3436V25.6925C9.95963 24.9677 5.42934 20.5582 5.42934 15.2426C5.42934 9.9271 9.95963 5.51761 14.4899 4.79277ZM17.5101 30.3435V25.6924C22.0404 25.0431 25.876 21.283 26.5254 16.7527H31.101C30.3912 24.3031 25.0606 29.6338 17.5101 30.3435Z" fill="#151515"/>
</svg>
